<?xml version="1.0" encoding="UTF-8" standalone="no"?>
<svg
   xmlns:dc="http://purl.org/dc/elements/1.1/"
   xmlns:cc="http://creativecommons.org/ns#"
   xmlns:rdf="http://www.w3.org/1999/02/22-rdf-syntax-ns#"
   xmlns:svg="http://www.w3.org/2000/svg"
   xmlns="http://www.w3.org/2000/svg"
   xmlns:sodipodi="http://sodipodi.sourceforge.net/DTD/sodipodi-0.dtd"
   xmlns:inkscape="http://www.inkscape.org/namespaces/inkscape"
   viewBox="0 0 16 16"
   id="svg2"
   version="1.1"
   inkscape:version="0.91 r13725"
   sodipodi:docname="ErrorWizard.svg">
  <metadata
     id="metadata26">
    <rdf:RDF>
      <cc:Work
         rdf:about="">
        <dc:format>image/svg+xml</dc:format>
        <dc:type
           rdf:resource="http://purl.org/dc/dcmitype/StillImage" />
        <dc:title></dc:title>
      </cc:Work>
    </rdf:RDF>
  </metadata>
  <defs
     id="defs24" />
  <sodipodi:namedview
     pagecolor="#ffffff"
     bordercolor="#666666"
     borderopacity="1"
     objecttolerance="10"
     gridtolerance="10"
     guidetolerance="10"
     inkscape:pageopacity="0"
     inkscape:pageshadow="2"
     inkscape:window-width="1445"
     inkscape:window-height="862"
     id="namedview22"
     showgrid="false"
     inkscape:zoom="14.75"
     inkscape:cx="8"
     inkscape:cy="10.237288"
     inkscape:window-x="0"
     inkscape:window-y="0"
     inkscape:window-maximized="0"
     inkscape:current-layer="svg2" />
  <path
     fill="#FFF"
     d="M1 1h14v14H1V1z"
     id="path4" />
  <path
     fill="#999"
     d="M1 1v14h14V1H1zm1 1h12v12H2V2z"
     id="path6" />
  <path
     fill="#FFF"
     d="M12 12H9.333l.667-.667.667-.666.666.666L12 12z"
     id="path16" />
  <g
     style="font-style:normal;font-weight:normal;font-size:11.93486214px;line-height:125%;font-family:sans-serif;letter-spacing:0px;word-spacing:0px;fill:#db2b24;fill-opacity:1;stroke:none;stroke-width:1px;stroke-linecap:butt;stroke-linejoin:miter;stroke-opacity:1"
     id="text4154">
    <path
       d="m 6.5953893,3.9306912 q 0.1265415,-0.1265415 0.1265415,-0.2997036 0,-0.173162 -0.1265415,-0.2997035 -0.1265415,-0.1265415 -0.2997035,-0.1265415 -0.1731621,0 -0.2997036,0.1265415 -0.1265415,0.1265415 -0.1265415,0.2997035 0,0.1731621 0.1265415,0.2997036 0.1265415,0.1265415 0.2997036,0.1265415 0.173162,0 0.2997035,-0.1265415 z m 6.0939727,-0.5128261 0,2.1312254 q 0,0.1065613 -0.07992,0.166502 -0.05328,0.046621 -0.133202,0.046621 -0.02664,0 -0.04662,-0.00666 L 9.4459033,5.1161853 Q 9.3726424,5.1028652 9.3260219,5.0429245 9.2794013,4.9829837 9.2794013,4.9097229 l -1.7049803,0 0,0.6793281 q 0.7392688,0.1531818 1.2187945,0.7392688 0.4861858,0.5860869 0.4861858,1.3519961 l 0,5.3280631 q 0,0.173162 -0.1265415,0.299704 -0.1265415,0.126541 -0.2997036,0.126541 l -3.4099606,0 q -0.173162,0 -0.2997036,-0.126541 -0.1265415,-0.126542 -0.1265415,-0.299704 l 0,-5.3280631 q 0,-0.7059684 0.412925,-1.2654151 0.419585,-0.5661067 1.0789328,-0.7659091 l 0,-0.7392688 -0.2131225,0 q -0.3929447,0 -0.7659092,0.1598419 Q 5.1568122,5.2227466 4.9170493,5.422549 4.6839466,5.6156913 4.4774841,5.8621142 4.2776817,6.1085372 4.2110809,6.2217585 4.1444801,6.3283198 4.1178398,6.3816004 4.0046185,6.6147032 3.7382153,6.6147032 3.631654,6.6147032 3.545073,6.5680826 3.3918912,6.4881617 3.3319505,6.3216597 3.2786698,6.1551577 3.3585908,5.9953158 3.3918912,5.928715 3.4518319,5.8221537 3.5184327,5.7155925 3.7049149,5.4691695 3.8913971,5.2160865 4.1045197,5.002964 4.3243023,4.7831814 4.6706264,4.5567387 5.0236106,4.3236359 5.3965751,4.2037545 5.2300731,3.9240311 5.2300731,3.6309876 q 0,-0.4395652 0.3130237,-0.7525889 0.3130237,-0.3130237 0.752589,-0.3130237 0.4395652,0 0.7525889,0.3130237 0.3130238,0.3130237 0.3130238,0.7525889 0,0.2197827 -0.093241,0.4262451 l 2.011344,0 q 0,-0.073261 0.046621,-0.1332016 0.04662,-0.059941 0.1198814,-0.073261 L 12.429619,3.2114026 q 0.01998,-0.00666 0.04662,-0.00666 0.07992,0 0.133202,0.04662 0.07992,0.059941 0.07992,0.166502 z"
       style="fill:#db2b24;fill-opacity:1"
       id="path4159" />
  </g>
  <rect
     style="fill:#ffffff;fill-opacity:1;stroke:none;stroke-width:2.13000011;stroke-miterlimit:4;stroke-dasharray:none;stroke-opacity:1"
     id="rect4163"
     width="3.6610174"
     height="2.2372878"
     x="5.2881355"
     y="7.5593228" />
</svg>
