<?xml version="1.0" encoding="UTF-8" standalone="no"?>
<!-- Created with Inkscape (http://www.inkscape.org/) -->

<svg
   xmlns:dc="http://purl.org/dc/elements/1.1/"
   xmlns:cc="http://creativecommons.org/ns#"
   xmlns:rdf="http://www.w3.org/1999/02/22-rdf-syntax-ns#"
   xmlns:svg="http://www.w3.org/2000/svg"
   xmlns="http://www.w3.org/2000/svg"
   xmlns:sodipodi="http://sodipodi.sourceforge.net/DTD/sodipodi-0.dtd"
   xmlns:inkscape="http://www.inkscape.org/namespaces/inkscape"
   width="32mm"
   height="32mm"
   viewBox="0 0 113.38583 113.38583"
   id="svg2"
   version="1.1"
   inkscape:version="0.91 r13725"
   sodipodi:docname="Haiku.svg">
  <defs
     id="defs4" />
  <sodipodi:namedview
     id="base"
     pagecolor="#ffffff"
     bordercolor="#666666"
     borderopacity="1.0"
     inkscape:pageopacity="0.0"
     inkscape:pageshadow="2"
     inkscape:zoom="4"
     inkscape:cx="47.857143"
     inkscape:cy="70"
     inkscape:document-units="px"
     inkscape:current-layer="layer1"
     showgrid="false"
     inkscape:window-width="1440"
     inkscape:window-height="851"
     inkscape:window-x="0"
     inkscape:window-y="1"
     inkscape:window-maximized="1" />
  <metadata
     id="metadata7">
    <rdf:RDF>
      <cc:Work
         rdf:about="">
        <dc:format>image/svg+xml</dc:format>
        <dc:type
           rdf:resource="http://purl.org/dc/dcmitype/StillImage" />
        <dc:title></dc:title>
      </cc:Work>
    </rdf:RDF>
  </metadata>
  <g
     inkscape:label="Layer 1"
     inkscape:groupmode="layer"
     id="layer1"
     transform="translate(0,-938.97638)">
    <rect
       style="fill:#f0e4d8;fill-opacity:1;stroke:#000000;stroke-width:2.13000013;stroke-miterlimit:4;stroke-dasharray:none;stroke-opacity:1"
       id="rect4151"
       width="61.370182"
       height="111.37019"
       x="26.314909"
       y="940.17706"
       rx="1.9957783"
       ry="2.2728608" />
    <g
       style="font-style:normal;font-weight:normal;font-size:40px;line-height:125%;font-family:sans-serif;letter-spacing:0px;word-spacing:0px;fill:#000000;fill-opacity:1;stroke:none;stroke-width:1px;stroke-linecap:butt;stroke-linejoin:miter;stroke-opacity:1"
       id="text4136"
       transform="matrix(1.1767957,0,0,1.1767957,-8.6431351,-171.69255)">
      <path
         d="m 59.21875,972.58093 q 0,8.90625 -9.375,13.125 l -1.5625,-2.8125 q 6.875,-3.125 7.65625,-8.4375 l -7.03125,2.03125 Q 48.75,977.58093 48.125,976.95593 l -0.9375,-3.59375 8.90625,-1.875 0,-3.59375 -6.5625,0 0,-2.96875 6.5625,0 0,-5.15625 -7.34375,0 0,-2.96875 7.34375,0 0,-6.5625 2.96875,0 q 1.25,0.15625 0.15625,0.9375 l 0,21.40625 z m -21.5625,-5.625 q 5.3125,-5.15625 6.71875,-17.03125 l 3.59375,1.09375 q 0.625,0.625 -0.46875,0.78125 -1.09375,5 -2.34375,8.4375 2.1875,0.46875 0.625,1.40625 l 0,24.0625 -3.125,0 0,-19.53125 Q 41.25,968.20593 39.375,970.08093 l -1.71875,-3.125 z m 35.3125,-7.1875 -7.96875,0 0,5.15625 7.03125,0 0,2.96875 -7.03125,0 0,5.46875 8.90625,0 0,2.96875 -8.90625,0 0,9.21875 -3.125,0 0,-35.46875 2.96875,0 q 1.25,0.15625 0.15625,0.9375 l 0,5.78125 7.96875,0 0,2.96875 z"
         style="fill:#000000;fill-opacity:1"
         id="path4143"
         inkscape:connector-curvature="0" />
      <path
         d="m 61.09375,1031.3309 3.59375,0 q 2.1875,0 2.8125,-2.5 0.9375,-3.9062 1.5625,-20 l -20.9375,0 q -3.90625,5.7813 -8.4375,8.5938 l -1.5625,-3.4375 q 7.03125,-4.5313 10.46875,-14.53127 l 3.28125,0.62497 q 1.40625,0.4688 -0.15625,1.0938 -0.625,2.0312 -1.875,4.2187 l 22.8125,0 q -0.9375,20.4688 -2.1875,25.4688 -0.9375,3.9062 -5,3.9062 l -4.375,0 0,-3.4375 z m -12.5,-15 0,7.5 9.0625,0 0,-7.5 -9.0625,0 z m 0,10.4688 0,2.6562 -3.125,0 0,-16.0937 15.3125,0 0,14.5312 -3.125,0 0,-1.0937 -9.0625,0 z"
         style="fill:#000000;fill-opacity:1"
         id="path4145"
         inkscape:connector-curvature="0" />
    </g>
  </g>
</svg>
